<?xml version="1.0" encoding="UTF-8"?>
<svg id="Layer_1" data-name="Layer 1" xmlns="http://www.w3.org/2000/svg" viewBox="0 0 200 100">
  <defs>
    <style>
      .cls-1 {
        fill: #333;
      }

      .cls-2 {
        fill: #00ade9;
      }
    </style>
  </defs>
  <g>
    <path class="cls-2" d="m61.96,45.19l-4.42,3.18v31.92c-11.24-5.68-21.81-9.45-30.07-11.88l1.59-5.8h19.64v-20.28h-22.56l-6.06,20.28-1.06,3.55c-5.35-1.27-8.54-1.73-8.54-1.73v-16.12l-4.68-3.12,28.08-25.48,18.98,17.22v-8.64h5.72v13.83l3.38,3.07Z"/>
    <polygon class="cls-2" points="39.85 51.17 39.85 53.77 31.53 53.77 32.42 51.17 39.85 51.17"/>
  </g>
  <g>
    <path class="cls-1" d="m79.59,51.11c.99-.53,2.12-.8,3.39-.8,1.48,0,2.82.36,4.02,1.09,1.2.73,2.15,1.77,2.85,3.11.7,1.35,1.05,2.9,1.05,4.68s-.35,3.34-1.05,4.71c-.7,1.37-1.65,2.42-2.85,3.17-1.2.75-2.54,1.13-4.02,1.13-1.27,0-2.39-.26-3.36-.78-.97-.52-1.76-1.18-2.36-1.97v10.73h-4.38v-25.58h4.38v2.5c.56-.79,1.34-1.45,2.33-1.99Zm6.19,5.38c-.43-.76-.99-1.34-1.69-1.74-.7-.4-1.45-.59-2.27-.59s-1.54.2-2.24.61c-.7.41-1.26,1-1.69,1.77-.43.77-.64,1.68-.64,2.72s.21,1.95.64,2.72c.43.77.99,1.36,1.69,1.77.7.41,1.44.61,2.24.61s1.57-.21,2.27-.63c.7-.42,1.26-1.01,1.69-1.78.43-.77.64-1.69.64-2.75s-.21-1.94-.64-2.7Z"/>
    <path class="cls-1" d="m94,54.54c.7-1.36,1.65-2.4,2.85-3.13,1.2-.73,2.54-1.09,4.02-1.09,1.29,0,2.42.26,3.39.78.97.52,1.75,1.18,2.33,1.97v-2.47h4.41v17.32h-4.41v-2.53c-.56.81-1.34,1.49-2.33,2.02s-2.13.8-3.42.8c-1.46,0-2.79-.37-3.99-1.13-1.2-.75-2.15-1.81-2.85-3.17-.7-1.36-1.05-2.93-1.05-4.71s.35-3.3,1.05-4.66Zm11.96,1.99c-.42-.76-.98-1.34-1.69-1.75-.71-.41-1.47-.61-2.28-.61s-1.56.2-2.25.59-1.25.97-1.67,1.74c-.43.76-.64,1.66-.64,2.7s.21,1.95.64,2.74c.43.78.99,1.38,1.69,1.8.7.42,1.44.63,2.24.63s1.57-.2,2.28-.61c.71-.41,1.27-.99,1.69-1.75.42-.76.63-1.67.63-2.74s-.21-1.97-.63-2.74Z"/>
    <path class="cls-1" d="m128.54,51.21c1.02.57,1.82,1.42,2.39,2.53.57,1.12.86,2.46.86,4.02v10.16h-4.38v-9.57c0-1.38-.34-2.43-1.03-3.17s-1.63-1.11-2.81-1.11-2.16.37-2.86,1.11-1.05,1.8-1.05,3.17v9.57h-4.38v-23.14h4.38v7.97c.56-.75,1.31-1.34,2.25-1.77.94-.43,1.98-.64,3.13-.64,1.31,0,2.48.29,3.5.86Z"/>
    <path class="cls-1" d="m152.31,50.6v17.32h-4.41v-2.19c-.56.75-1.3,1.34-2.2,1.77-.91.43-1.89.64-2.96.64-1.36,0-2.55-.29-3.6-.86-1.04-.57-1.86-1.42-2.45-2.53-.59-1.11-.89-2.44-.89-3.99v-10.16h4.38v9.54c0,1.38.34,2.43,1.03,3.17.69.74,1.63,1.11,2.81,1.11s2.16-.37,2.85-1.11c.69-.74,1.03-1.8,1.03-3.17v-9.54h4.41Z"/>
    <path class="cls-1" d="m171.23,52.3c1.27,1.3,1.91,3.12,1.91,5.46v10.16h-4.38v-9.57c0-1.38-.34-2.43-1.03-3.17s-1.63-1.11-2.81-1.11-2.16.37-2.86,1.11-1.05,1.8-1.05,3.17v9.57h-4.38v-17.32h4.38v2.16c.58-.75,1.33-1.34,2.24-1.77.91-.43,1.9-.64,2.99-.64,2.06,0,3.73.65,5,1.95Z"/>
    <path class="cls-1" d="m177.21,54.54c.7-1.36,1.65-2.4,2.85-3.13,1.2-.73,2.54-1.09,4.02-1.09,1.29,0,2.42.26,3.39.78.97.52,1.75,1.18,2.33,1.97v-2.47h4.41v17.32h-4.41v-2.53c-.56.81-1.34,1.49-2.33,2.02s-2.13.8-3.42.8c-1.46,0-2.79-.37-3.99-1.13-1.2-.75-2.15-1.81-2.85-3.17-.7-1.36-1.05-2.93-1.05-4.71s.35-3.3,1.05-4.66Zm11.96,1.99c-.42-.76-.98-1.34-1.69-1.75-.71-.41-1.47-.61-2.28-.61s-1.56.2-2.25.59-1.25.97-1.67,1.74-.64,1.66-.64,2.7.21,1.95.64,2.74.99,1.38,1.69,1.8c.7.42,1.44.63,2.24.63s1.57-.2,2.28-.61c.71-.41,1.27-.99,1.69-1.75.42-.76.63-1.67.63-2.74s-.21-1.97-.63-2.74Z"/>
  </g>
</svg>